<svg width="64" height="64" viewBox="0 0 64 64" fill="none" xmlns="http://www.w3.org/2000/svg">
<path d="M64 32C64 49.6731 49.6731 64 32 64C14.3269 64 0 49.6731 0 32C0 14.3269 14.3269 0 32 0C49.6731 0 64 14.3269 64 32Z" fill="#F70042"/>
<path d="M53.0947 27.42L42.4103 11.1079C42.1323 10.6823 41.5329 10.5086 41.0378 10.9255L17.2888 30.6078C16.924 30.877 16.8284 31.4242 17.1064 31.789L27.8864 48.1012C28.2165 48.5963 28.894 48.5442 29.1633 48.2836L52.9123 28.6013C53.2771 28.3321 53.364 27.7848 53.0947 27.42ZM40.3168 13.9048L37.0159 32.6142L20.1206 30.5991L40.3168 13.9048ZM28.7985 46.1903L19.7558 32.4057L37.7456 34.6206H37.8411C38.206 34.6206 38.6664 34.2558 38.7532 33.7086L42.1844 13.9916L51.175 27.698L28.7985 46.1903Z" fill="#0E0A18"/>
<path d="M16.3159 37.7128L10.687 42.3685L11.851 43.7669L17.4799 39.1199L16.3159 37.7128Z" fill="#0E0A18"/>
<path d="M18.1574 42.4206L12.5373 47.0675L13.7013 48.4747L19.3214 43.819L18.1574 42.4206Z" fill="#0E0A18"/>
<path d="M14.4396 51.8448L15.6036 53.2519L21.2325 48.5963L20.0598 47.1978L14.4396 51.8448Z" fill="#0E0A18"/>
</svg>
